<?xml version="1.0" standalone="no"?>
<!DOCTYPE svg PUBLIC "-//W3C//DTD SVG 20010904//EN"
 "http://www.w3.org/TR/2001/REC-SVG-20010904/DTD/svg10.dtd">
<svg version="1.0" xmlns="http://www.w3.org/2000/svg"
 width="512.000000pt" height="512.000000pt" viewBox="0 0 512.000000 512.000000"
 preserveAspectRatio="xMidYMid meet">

<g transform="translate(0.000000,512.000000) scale(0.100000,-0.100000)"
fill="#000000" stroke="none">
<path d="M3371 5095 c-67 -39 -206 -150 -305 -245 -172 -164 -320 -364 -429
-577 l-51 -101 -39 71 c-94 174 -233 338 -381 452 -169 129 -405 228 -617 259
-210 31 -283 16 -329 -67 -21 -37 -22 -48 -17 -143 18 -287 130 -571 309 -786
l39 -47 -28 -6 c-71 -15 -225 -69 -295 -104 -379 -192 -632 -555 -732 -1053
-131 -651 42 -1447 448 -2068 319 -486 739 -737 1122 -669 96 17 151 37 301
112 190 94 196 94 377 4 157 -79 196 -94 294 -113 286 -55 589 59 859 325 258
254 463 599 609 1025 226 658 215 1337 -32 1831 -237 475 -715 777 -1134 716
-126 -19 -198 -44 -403 -143 -103 -50 -190 -89 -192 -87 -7 8 47 195 85 292
134 338 357 623 649 833 89 63 121 107 121 166 0 75 -74 148 -150 148 -19 0
-55 -11 -79 -25z m-1686 -481 c336 -113 596 -396 684 -744 10 -41 17 -78 15
-82 -2 -3 -30 0 -62 7 -360 84 -645 341 -763 688 -22 61 -39 126 -39 144 l0
31 58 -13 c32 -8 80 -21 107 -31z m160 -1024 c39 -12 149 -59 245 -105 205
-98 310 -133 423 -141 160 -12 267 17 537 146 211 101 263 119 375 127 136 9
304 -47 448 -151 80 -57 200 -183 258 -271 338 -512 312 -1365 -64 -2105 -108
-213 -215 -367 -351 -508 -178 -184 -368 -282 -546 -282 -75 0 -155 27 -304
101 -258 128 -354 128 -612 0 -149 -74 -229 -101 -304 -101 -258 0 -539 207
-772 570 -303 471 -468 1105 -419 1610 38 387 156 669 370 880 125 124 291
219 435 250 64 14 203 4 281 -20z"/>
</g>
</svg>
