<?xml version="1.0" standalone="no"?>
<!DOCTYPE svg PUBLIC "-//W3C//DTD SVG 20010904//EN"
 "http://www.w3.org/TR/2001/REC-SVG-20010904/DTD/svg10.dtd">
<svg version="1.0" xmlns="http://www.w3.org/2000/svg"
 width="512.000000pt" height="512.000000pt" viewBox="0 0 512.000000 512.000000"
 preserveAspectRatio="xMidYMid meet">

<g transform="translate(0.000000,512.000000) scale(0.100000,-0.100000)"
fill="#000000" stroke="none">
<path d="M1864 4781 c-38 -23 -59 -76 -45 -113 5 -14 23 -47 40 -75 88 -142
78 -333 -25 -475 -83 -116 -124 -243 -124 -383 0 -154 50 -302 129 -385 32
-34 44 -40 79 -40 32 0 49 7 73 28 46 41 45 89 -3 167 -49 79 -72 170 -65 255
8 91 30 148 96 249 77 117 102 197 109 336 5 122 -9 196 -54 295 -66 144 -132
189 -210 141z"/>
<path d="M2504 4781 c-36 -22 -60 -78 -48 -113 4 -13 19 -41 34 -63 46 -67 64
-130 64 -230 1 -108 -18 -168 -75 -250 -93 -133 -129 -240 -129 -391 0 -155
49 -299 131 -386 30 -32 43 -38 76 -38 49 0 87 27 103 74 12 37 5 58 -45 142
-81 134 -68 330 29 462 140 191 167 440 70 652 -66 144 -132 189 -210 141z"/>
<path d="M3144 4781 c-38 -23 -59 -76 -45 -113 5 -14 23 -47 40 -75 87 -141
76 -344 -25 -477 -80 -105 -124 -241 -124 -381 0 -154 50 -302 129 -385 32
-33 44 -40 77 -40 49 0 82 22 100 67 17 41 13 59 -32 133 -45 74 -68 167 -61
250 8 91 30 148 96 249 75 114 102 197 109 328 6 121 -8 201 -49 293 -70 155
-135 200 -215 151z"/>
<path d="M864 3079 c-49 -14 -125 -69 -161 -117 -59 -78 -66 -125 -60 -391 6
-255 18 -352 68 -540 104 -394 339 -762 652 -1023 l58 -48 -675 0 -674 0 -31
-26 c-40 -34 -50 -85 -25 -131 24 -46 296 -309 369 -358 78 -52 173 -90 270
-110 72 -14 257 -15 1835 -13 l1755 3 70 23 c161 54 216 93 407 280 118 117
179 184 183 202 4 16 0 43 -9 63 -29 70 0 67 -743 67 l-668 0 40 32 c22 18 74
64 115 104 l75 72 100 21 c341 74 744 236 944 379 296 212 404 436 345 720
-70 338 -367 457 -815 326 -14 -4 -17 11 -21 114 -4 100 -9 128 -31 175 -34
74 -103 140 -173 166 -54 21 -63 21 -1612 20 -901 0 -1570 -5 -1588 -10z
m3137 -216 c48 -29 52 -51 47 -305 -6 -265 -22 -368 -88 -569 -134 -408 -429
-774 -796 -989 l-69 -40 -642 0 -642 0 -52 30 c-156 93 -278 190 -409 327
-126 131 -215 258 -300 427 -141 279 -200 547 -200 907 0 144 10 183 54 210
30 18 75 19 1549 19 1408 0 1521 -1 1548 -17z m738 -429 c108 -32 163 -127
165 -284 2 -214 -172 -395 -542 -560 -102 -46 -395 -150 -421 -150 -6 0 6 26
26 57 57 90 158 307 198 428 33 101 75 292 90 407 l6 47 62 20 c153 51 317 65
416 35z m-239 -1730 c-64 -65 -154 -121 -235 -147 l-70 -22 -1740 0 -1740 0
-70 22 c-83 26 -172 82 -234 147 l-45 46 2089 0 2089 0 -44 -46z"/>
</g>
</svg>
