<?xml version="1.0" standalone="no"?>
<!DOCTYPE svg PUBLIC "-//W3C//DTD SVG 20010904//EN"
 "http://www.w3.org/TR/2001/REC-SVG-20010904/DTD/svg10.dtd">
<svg version="1.0" xmlns="http://www.w3.org/2000/svg"
 width="512.000000pt" height="512.000000pt" viewBox="0 0 512.000000 512.000000"
 preserveAspectRatio="xMidYMid meet">

<g transform="translate(0.000000,512.000000) scale(0.100000,-0.100000)"
fill="#000000" stroke="none">
<path d="M1075 3774 c-84 -31 -134 -109 -135 -206 l0 -58 -170 0 c-218 0 -260
-15 -313 -115 -19 -36 -22 -59 -25 -252 l-4 -212 -195 -3 c-191 -3 -195 -3
-214 -27 -18 -22 -19 -43 -19 -341 0 -298 1 -319 19 -341 19 -24 23 -24 214
-27 l195 -3 4 -212 c3 -193 6 -216 25 -252 53 -100 95 -115 313 -115 l170 0 0
-55 c0 -102 54 -181 141 -210 40 -14 89 -16 286 -13 231 3 239 4 280 27 55 32
90 83 103 150 5 30 10 195 10 367 l0 314 800 0 800 0 0 -314 c0 -172 5 -337
10 -367 13 -67 48 -118 103 -150 41 -23 49 -24 280 -27 197 -3 246 -1 286 13
87 29 141 108 141 210 l0 55 170 0 c218 0 260 15 313 115 19 36 22 59 25 252
l4 212 195 3 c191 3 195 3 214 27 18 22 19 43 19 341 0 298 -1 319 -19 341
-19 24 -23 24 -214 27 l-195 3 -4 212 c-3 193 -6 216 -25 252 -53 100 -95 115
-313 115 l-170 0 0 55 c0 102 -54 181 -141 210 -40 14 -89 16 -286 13 -231 -3
-239 -4 -280 -27 -55 -32 -90 -83 -103 -150 -5 -30 -10 -195 -10 -367 l0 -314
-800 0 -800 0 0 314 c0 172 -5 337 -10 367 -13 67 -48 118 -103 150 -41 23
-48 24 -287 26 -196 2 -253 -1 -285 -13z m503 -150 l22 -15 0 -1049 0 -1050
-24 -15 c-21 -14 -57 -16 -241 -13 -201 3 -218 4 -231 22 -12 17 -14 177 -14
1056 0 1078 -1 1059 40 1073 8 3 107 6 220 6 171 1 209 -2 228 -15z m2438 -8
c21 -30 21 -2082 0 -2112 -13 -18 -30 -19 -231 -22 -184 -3 -220 -1 -241 13
l-24 15 0 1050 0 1049 23 16 c19 13 53 15 240 13 203 -3 220 -4 233 -22z
m-3094 -273 c17 -15 18 -53 18 -781 0 -698 -1 -767 -17 -784 -14 -16 -33 -18
-155 -18 -77 0 -148 5 -159 10 -19 10 -19 30 -19 790 0 731 1 780 18 789 9 6
80 11 156 11 116 0 143 -3 158 -17z m3589 7 c19 -10 19 -30 19 -790 0 -760 0
-780 -19 -790 -11 -5 -81 -10 -157 -10 -114 0 -141 3 -156 17 -17 15 -18 53
-18 781 0 698 1 767 17 784 14 16 33 18 155 18 77 0 148 -5 159 -10z m-4081
-790 l0 -220 -140 0 -140 0 0 220 0 220 140 0 140 0 0 -220z m2930 0 l0 -220
-800 0 -800 0 0 220 0 220 800 0 800 0 0 -220z m1610 0 l0 -220 -140 0 -140 0
0 220 0 220 140 0 140 0 0 -220z"/>
</g>
</svg>
