<?xml version="1.0" standalone="no"?>
<!DOCTYPE svg PUBLIC "-//W3C//DTD SVG 20010904//EN"
 "http://www.w3.org/TR/2001/REC-SVG-20010904/DTD/svg10.dtd">
<svg version="1.0" xmlns="http://www.w3.org/2000/svg"
 width="512.000000pt" height="512.000000pt" viewBox="0 0 512.000000 512.000000"
 preserveAspectRatio="xMidYMid meet">

<g transform="translate(0.000000,512.000000) scale(0.100000,-0.100000)"
fill="#000000" stroke="none">
<path d="M3760 4774 c-219 -32 -362 -84 -514 -187 -78 -53 -196 -166 -257
-246 -56 -74 -139 -233 -165 -314 l-16 -53 -72 9 c-87 11 -368 3 -453 -13 -36
-7 -69 -20 -79 -31 -24 -26 -22 -75 4 -101 21 -21 23 -21 149 -8 114 11 408
11 415 -1 2 -2 2 -140 0 -306 l-3 -303 -233 0 c-250 0 -302 -7 -396 -55 -109
-55 -216 -184 -251 -303 -13 -46 -13 -46 -86 -16 -31 13 -33 17 -33 63 0 43 7
60 54 131 30 44 65 110 77 145 16 42 31 68 47 77 74 39 183 202 197 294 15 97
-53 200 -148 226 l-47 12 0 183 c0 100 -5 206 -11 235 -39 187 -200 348 -387
387 -83 17 -535 14 -605 -4 -172 -45 -310 -180 -361 -354 -12 -42 -16 -100
-16 -248 0 -176 -2 -194 -18 -199 -66 -20 -124 -57 -149 -96 -24 -36 -28 -51
-28 -112 1 -60 6 -81 32 -131 40 -78 87 -135 146 -180 26 -20 47 -41 47 -46 0
-23 73 -167 111 -216 36 -48 40 -58 37 -104 l-3 -50 -81 -33 c-352 -141 -605
-467 -655 -840 -16 -122 -9 -181 25 -214 l26 -27 461 -5 461 -5 47 -105 c86
-193 180 -328 334 -487 l109 -111 -56 -114 c-64 -129 -101 -258 -111 -394 -6
-74 -4 -96 9 -122 34 -66 -44 -62 1246 -62 1291 0 1212 -4 1246 62 22 42 13
171 -21 306 -84 329 -323 600 -639 723 l-71 27 -3 55 c-3 52 0 59 55 141 l58
86 397 0 397 0 -28 -62 c-38 -85 -108 -202 -170 -284 -56 -74 -61 -98 -30
-138 31 -39 78 -36 118 9 76 86 193 286 248 422 l22 52 460 3 459 3 26 24 c14
13 29 40 32 60 10 52 -13 224 -42 321 -23 75 -91 226 -115 256 -4 5 -10 336
-12 735 -3 705 -3 726 -25 805 -118 446 -483 768 -932 824 -81 10 -177 11
-230 4z m330 -174 c332 -85 582 -331 684 -675 20 -67 21 -97 24 -693 l3 -623
-76 60 c-88 70 -179 123 -279 162 l-71 27 -3 71 c-3 67 -1 72 34 118 53 69
112 196 129 282 13 58 15 130 13 335 -3 255 -4 262 -28 309 -28 55 -79 106
-142 139 l-43 23 -475 0 -475 0 -51 -27 c-28 -15 -70 -48 -92 -73 -67 -76 -72
-103 -72 -395 0 -223 3 -267 20 -334 24 -94 66 -184 120 -254 38 -50 40 -56
40 -122 0 -70 0 -70 -33 -84 -73 -30 -73 -30 -86 16 -36 122 -145 251 -258
306 l-55 27 4 325 c4 293 7 333 26 402 85 308 318 559 612 657 165 56 365 63
530 21z m-2487 -174 c65 -33 125 -93 158 -157 23 -46 41 -99 33 -99 -3 0 -32
9 -65 20 -58 20 -80 21 -492 18 -417 -3 -433 -4 -474 -24 -24 -12 -43 -18 -43
-13 0 4 9 33 21 63 22 60 90 143 145 177 73 45 103 48 389 46 l270 -2 58 -29z
m104 -387 c29 -14 52 -35 68 -63 23 -39 25 -53 25 -168 0 -111 2 -128 20 -151
25 -31 56 -38 93 -19 35 16 65 8 79 -23 25 -55 -58 -192 -143 -236 -37 -18
-69 -62 -69 -92 0 -32 -84 -180 -132 -232 -62 -68 -299 -229 -351 -239 -20 -4
-53 -4 -73 0 -55 10 -289 169 -356 243 -52 56 -128 187 -128 221 0 29 -34 79
-61 90 -68 29 -159 155 -159 222 0 37 43 67 71 50 30 -19 84 -15 105 9 16 17
19 42 24 162 6 160 17 189 88 227 35 18 61 19 446 20 396 0 411 -1 453 -21z
m2621 -69 c18 -11 41 -34 52 -52 18 -31 20 -51 20 -277 0 -263 -7 -316 -57
-415 -53 -107 -115 -168 -287 -284 l-128 -87 -67 0 -68 0 -129 85 c-152 101
-228 173 -276 267 -67 127 -72 160 -73 428 0 224 1 242 21 275 11 19 35 45 54
57 33 23 33 23 469 23 417 0 437 -1 469 -20z m-1436 -927 c89 -41 172 -137
197 -226 9 -35 8 -38 -7 -32 -79 33 -108 35 -524 35 -393 0 -422 -1 -475 -20
-32 -11 -58 -20 -59 -20 -5 0 20 78 33 104 20 40 89 112 130 137 72 45 103 48
388 46 253 -2 273 -3 317 -24z m870 -328 c115 -34 207 -13 341 79 51 34 98 66
106 71 11 7 13 -9 9 -96 -4 -85 -9 -115 -30 -161 -33 -72 -103 -142 -176 -176
-49 -23 -70 -27 -152 -27 -84 0 -102 3 -152 28 -75 37 -134 98 -171 176 -25
54 -31 80 -35 163 l-5 99 107 -70 c59 -39 130 -77 158 -86z m-2730 31 c181
-118 294 -112 495 27 45 31 85 57 89 57 4 0 4 -38 2 -85 -10 -147 -83 -262
-208 -323 -48 -24 -67 -27 -150 -27 -82 0 -103 4 -152 27 -127 59 -197 169
-206 321 l-5 91 25 -16 c13 -9 63 -41 110 -72z m-266 -114 c27 -131 128 -265
250 -329 241 -128 522 -55 670 173 36 56 74 158 74 199 0 30 -1 30 61 4 l49
-21 0 -128 0 -127 -38 -7 c-21 -3 -57 -19 -79 -35 -117 -85 -101 -263 36 -413
l53 -58 -847 0 -847 0 7 63 c23 202 135 422 283 558 89 81 275 194 306 185 5
-1 15 -30 22 -64z m2594 46 c1 -39 45 -153 80 -203 99 -144 252 -225 425 -225
185 0 365 112 448 279 20 39 39 92 43 116 3 25 10 48 14 50 25 15 217 -97 308
-180 149 -134 264 -360 287 -562 l7 -63 -847 0 -847 0 53 58 c137 150 153 328
36 413 -22 16 -58 32 -79 35 l-38 7 0 127 0 127 48 21 c59 27 62 27 62 0z
m-350 -28 c73 -37 84 -66 90 -226 6 -180 10 -186 114 -182 68 3 70 2 80 -24
21 -58 -68 -191 -160 -239 -25 -13 -36 -31 -58 -95 -57 -161 -123 -237 -311
-363 -195 -131 -215 -131 -410 0 -188 126 -254 202 -311 363 -22 63 -34 82
-57 95 -118 64 -195 204 -138 255 14 13 29 15 72 10 48 -5 56 -3 74 16 17 19
21 40 25 164 6 159 17 188 88 226 35 18 61 19 450 20 392 0 415 -1 452 -20z
m-1017 -996 c55 -82 58 -89 55 -141 l-3 -55 -71 -27 c-135 -53 -251 -128 -359
-233 l-51 -48 -90 92 c-135 138 -232 278 -307 441 l-26 57 397 0 397 0 58 -86z
m306 -274 c125 -85 170 -103 261 -103 91 0 136 18 261 103 48 33 91 60 95 60
12 0 -3 -163 -20 -210 -35 -94 -133 -187 -230 -215 -194 -58 -401 56 -451 250
-15 57 -21 175 -9 175 3 0 45 -27 93 -60z m-227 -152 c53 -218 259 -378 488
-378 229 0 435 160 488 378 9 40 20 72 24 72 19 0 124 -53 190 -96 219 -141
367 -385 403 -661 l7 -53 -1112 0 -1112 0 7 53 c36 276 184 520 403 661 70 45
166 94 187 95 6 1 18 -31 27 -71z"/>
<path d="M945 3705 c-34 -33 -34 -87 0 -120 59 -60 161 -2 141 80 -16 64 -96
86 -141 40z"/>
<path d="M1446 3704 c-55 -55 -18 -144 59 -144 49 0 85 36 85 85 0 77 -89 114
-144 59z"/>
<path d="M1073 3325 c-54 -38 -32 -106 47 -149 98 -53 238 -42 315 25 43 38
48 86 13 119 -28 26 -62 25 -100 -2 -47 -33 -113 -35 -171 -4 -55 30 -74 32
-104 11z"/>
<path d="M3549 3711 c-31 -31 -36 -59 -17 -94 42 -80 158 -52 158 38 0 79 -84
112 -141 56z"/>
<path d="M4049 3711 c-36 -36 -37 -70 -3 -110 51 -61 144 -26 144 54 0 79 -84
112 -141 56z"/>
<path d="M3672 3330 c-35 -33 -30 -81 12 -118 79 -69 216 -81 316 -26 66 36
89 77 69 120 -8 16 -27 33 -42 38 -24 9 -37 6 -79 -18 -41 -23 -59 -28 -98
-24 -26 3 -61 14 -78 26 -38 27 -72 28 -100 2z"/>
<path d="M2245 2315 c-78 -77 38 -195 119 -120 56 52 19 145 -59 145 -25 0
-44 -8 -60 -25z"/>
<path d="M2759 2327 c-46 -35 -50 -88 -10 -128 57 -56 141 -23 141 56 0 66
-81 111 -131 72z"/>
<path d="M2382 1943 c-23 -9 -43 -60 -33 -86 21 -55 124 -107 211 -107 54 0
135 27 170 57 43 36 54 67 35 102 -24 47 -68 54 -118 19 -24 -17 -46 -23 -87
-23 -41 0 -63 6 -87 23 -29 21 -63 27 -91 15z"/>
</g>
</svg>
