<?xml version="1.0" standalone="yes"?>
<svg xmlns="http://www.w3.org/2000/svg" width="512" height="512">
<path style="fill:#ffffff; stroke:none;" d="M0 0L0 420L1 420C1.30047 405.443 6.47007 390.264 12.1505 377C45.7018 298.653 140.843 265.944 218 297.452C260.602 314.849 294.041 353.732 305.845 398C310.876 416.867 311 435.64 311 455L0 455L0 512L512 512L512 428L340 428C338.395 390.615 323.909 354.435 301.112 325C292.543 313.936 275.896 304.098 270 292C277.63 288.505 283.746 281.787 291 277.453C305.517 268.781 321.338 262.435 338 259.424C414.777 245.552 507.334 295.64 511 381L512 381L512 0L0 0z"/>
<path style="fill:#010101; stroke:none;" d="M143 57.4283C131.964 59.0093 121.841 62.5848 112 67.7809C36.6941 107.54 49.0127 230.716 132 252.845C144.517 256.182 157.253 256.422 170 254.572C181.631 252.883 193.081 248.611 203 242.305C272.368 198.201 260.881 82.4323 179 59.7454C167.742 56.6261 154.58 55.7694 143 57.4283M358 71.4283C272.428 83.6871 261.598 214.655 346 238.572C357.094 241.716 368.631 242.206 380 240.711C389.562 239.453 398.662 236.03 407 231.279C469.839 195.476 458.059 94.1954 389 73.7207C379.229 70.8238 368.106 69.9805 358 71.4283M270 292C271.812 298.178 278.536 301.66 283 306.015C291.849 314.647 299.814 324.034 307.115 334C327.071 361.24 337.368 394.648 340 428L512 428C512 393.317 512.281 361.552 495.511 330C463.172 269.156 388.59 243.996 324 262.427C303.201 268.363 287.504 280.033 270 292M0 455L311 455C311 411.469 303.942 370.726 273.826 337C204.001 258.803 67.8007 271.806 17.3086 365C1.80371 393.618 0 423.267 0 455z"/>
</svg>
