<?xml version="1.0" standalone="no"?>
<!DOCTYPE svg PUBLIC "-//W3C//DTD SVG 20010904//EN"
 "http://www.w3.org/TR/2001/REC-SVG-20010904/DTD/svg10.dtd">
<svg version="1.0" xmlns="http://www.w3.org/2000/svg"
 width="512.000000pt" height="512.000000pt" viewBox="0 0 512.000000 512.000000"
 preserveAspectRatio="xMidYMid meet">

<g transform="translate(0.000000,512.000000) scale(0.100000,-0.100000)"
fill="#000000" stroke="none">
<path d="M361 4624 c-169 -45 -301 -180 -346 -351 -23 -86 -23 -3340 0 -3426
45 -173 178 -307 350 -352 52 -13 309 -15 2195 -15 2330 0 2184 -4 2302 56 71
36 159 123 197 193 65 122 61 8 61 1831 0 1455 -2 1663 -15 1715 -45 172 -179
305 -352 350 -85 22 -4309 21 -4392 -1z m4365 -330 c15 -11 37 -33 48 -48 21
-27 21 -34 24 -1144 l2 -1117 -522 522 c-567 566 -543 545 -635 528 -34 -6
-125 -93 -800 -768 l-763 -762 -282 282 c-244 243 -288 282 -320 288 -93 17
-69 38 -635 -528 l-523 -522 0 1582 c0 1096 3 1590 11 1610 14 37 47 73 84 89
25 11 400 13 2157 11 l2127 -2 27 -21z m-483 -2202 l558 -558 -3 -316 c-3
-302 -4 -318 -24 -344 -11 -15 -33 -37 -48 -48 -27 -21 -31 -21 -1464 -24
l-1437 -2 925 925 c509 509 927 925 930 925 3 0 256 -251 563 -558z m-2593
-607 l205 -205 -240 -240 -240 -240 -415 0 -415 0 445 445 c245 245 447 445
450 445 3 0 97 -92 210 -205z"/>
<path d="M1161 3504 c-253 -68 -410 -331 -346 -579 67 -256 329 -415 580 -350
256 67 415 329 350 578 -67 259 -333 419 -584 351z m182 -318 c103 -43 128
-177 48 -257 -112 -113 -296 -12 -267 146 18 94 128 150 219 111z"/>
</g>
</svg>
