<?xml version="1.0" standalone="no"?>
<!DOCTYPE svg PUBLIC "-//W3C//DTD SVG 20010904//EN"
 "http://www.w3.org/TR/2001/REC-SVG-20010904/DTD/svg10.dtd">
<svg version="1.0" xmlns="http://www.w3.org/2000/svg"
 width="512.000000pt" height="512.000000pt" viewBox="0 0 512.000000 512.000000"
 preserveAspectRatio="xMidYMid meet">

<g transform="translate(0.000000,512.000000) scale(0.100000,-0.100000)"
fill="#000000" stroke="none">
<path d="M1173 4790 c-67 -40 -86 -102 -108 -347 -25 -284 -68 -442 -195 -713
-95 -202 -142 -321 -226 -578 -101 -307 -186 -472 -344 -667 -72 -89 -136
-186 -151 -232 -24 -75 13 -151 90 -186 41 -18 69 -21 236 -22 173 -2 198 -4
285 -29 151 -43 280 -99 453 -198 153 -86 296 -155 414 -200 67 -25 67 -24 67
-338 1 -276 -7 -329 -85 -575 -51 -164 -62 -272 -30 -323 54 -85 149 -93 306
-28 134 56 228 82 348 96 126 15 340 8 467 -14 154 -28 289 -36 570 -36 281 0
416 8 570 36 128 22 330 29 461 14 126 -13 218 -39 354 -96 75 -32 102 -38
160 -39 57 0 76 4 101 22 81 58 82 147 6 384 -66 203 -71 229 -82 383 -7 99
-6 194 6 386 14 224 15 284 3 495 -17 299 -16 496 5 606 9 47 39 154 67 239
44 132 52 167 53 235 1 69 -2 85 -22 113 -61 85 -172 86 -342 2 -121 -60 -278
-90 -473 -90 l-118 0 22 33 c12 17 46 59 74 92 126 147 185 245 185 307 0 53
-32 111 -77 139 -36 23 -47 24 -228 25 -177 2 -198 4 -305 32 -148 39 -294
101 -450 193 -144 84 -304 161 -440 212 -52 20 -115 44 -140 55 -101 43 -275
96 -450 137 -225 53 -282 72 -427 140 -147 70 -191 101 -295 206 -113 116
-166 149 -232 149 -33 0 -62 -7 -83 -20z m117 -135 c19 -14 67 -59 107 -100
159 -164 418 -290 749 -364 193 -43 305 -79 554 -178 227 -90 319 -133 447
-209 198 -117 379 -192 569 -234 81 -19 127 -22 260 -21 210 1 213 -1 152 -95
-25 -38 -71 -98 -103 -134 -31 -36 -78 -94 -103 -130 -25 -36 -49 -69 -52 -73
-4 -4 -58 0 -121 10 -95 15 -175 18 -489 18 -358 -1 -383 -2 -548 -28 -333
-52 -571 -33 -784 64 -114 50 -203 72 -247 59 -47 -13 -79 -36 -101 -73 -37
-60 -24 -155 55 -417 14 -47 35 -139 47 -205 21 -125 21 -197 2 -647 l-7 -147
-51 20 c-93 37 -237 108 -350 174 -183 106 -310 159 -501 211 -90 24 -119 27
-286 29 -102 1 -191 5 -198 9 -28 18 -2 64 122 220 173 217 278 419 357 691
51 171 154 435 232 590 118 234 177 454 198 732 13 164 29 253 48 253 4 0 23
-11 42 -25z m580 -1600 c222 -103 510 -129 855 -76 189 29 239 33 455 35 247
4 471 -9 630 -34 299 -48 613 -30 793 46 31 13 83 35 115 48 31 14 71 26 87
28 l30 3 -2 -56 c-1 -36 -18 -106 -47 -193 -75 -225 -81 -267 -80 -536 2 -301
2 -789 0 -1090 -1 -268 5 -311 79 -533 24 -74 48 -160 51 -192 l7 -58 -46 6
c-26 4 -77 22 -114 41 -204 102 -524 135 -843 87 -201 -31 -342 -41 -570 -41
-227 0 -366 10 -575 41 -171 25 -386 27 -537 4 -131 -19 -188 -36 -295 -86
-45 -21 -102 -42 -124 -45 l-42 -7 6 59 c3 33 24 118 47 189 76 245 86 314 81
605 -6 443 -5 699 3 910 11 281 -5 393 -109 739 -14 46 -25 101 -25 123 l0 40
38 -7 c20 -3 80 -26 132 -50z"/>
</g>
</svg>
