<svg version="1.0" xmlns="http://www.w3.org/2000/svg"
 width="512.000000pt" height="512.000000pt" viewBox="0 0 512.000000 512.000000"
 preserveAspectRatio="xMidYMid meet">

<g transform="translate(0.000000,512.000000) scale(0.100000,-0.100000)"
fill="#000000" stroke="none">
<path d="M4182 5085 c-171 -37 -309 -192 -332 -371 -5 -38 -9 -1093 -10 -2381
l0 -2313 640 0 640 0 0 2334 c0 1545 -3 2351 -10 2387 -33 174 -175 316 -349
349 -81 15 -502 11 -579 -5z"/>
<path d="M2293 3610 c-69 -10 -170 -58 -223 -106 -50 -45 -99 -118 -126 -189
-18 -48 -19 -104 -22 -1672 l-2 -1623 640 0 640 0 -3 1623 c-3 1802 3 1655
-70 1769 -68 106 -184 180 -309 198 -74 11 -450 11 -525 0z"/>
<path d="M360 2249 c-167 -27 -318 -178 -350 -348 -6 -33 -10 -397 -10 -967
l0 -914 640 0 640 0 0 893 c0 545 -4 919 -10 962 -28 192 -176 344 -366 375
-72 12 -468 11 -544 -1z"/>
</g>
</svg>
