<?xml version="1.0" standalone="no"?>
<!DOCTYPE svg PUBLIC "-//W3C//DTD SVG 20010904//EN"
 "http://www.w3.org/TR/2001/REC-SVG-20010904/DTD/svg10.dtd">
<svg version="1.0" xmlns="http://www.w3.org/2000/svg"
 width="512.000000pt" height="512.000000pt" viewBox="0 0 512.000000 512.000000"
 preserveAspectRatio="xMidYMid meet">

<g transform="translate(0.000000,512.000000) scale(0.100000,-0.100000)"
fill="#000000" stroke="none">
<path d="M2280 4675 c-720 -100 -1337 -549 -1646 -1200 -85 -179 -141 -356
-181 -575 -25 -136 -25 -544 0 -680 87 -471 279 -844 601 -1166 321 -321 699
-516 1161 -600 121 -22 442 -30 576 -15 591 68 1126 374 1476 845 207 277 333
573 398 931 22 123 31 423 16 566 -104 995 -891 1788 -1886 1899 -122 13 -399
11 -515 -5z m394 -655 c20 -14 49 -43 64 -64 l27 -39 5 -571 5 -571 355 -5
c383 -5 386 -6 436 -62 90 -99 75 -246 -34 -323 l-44 -30 -502 0 -503 0 -39
27 c-21 15 -50 44 -64 65 l-25 37 0 717 0 717 30 43 c45 64 104 91 186 87 50
-3 75 -10 103 -28z"/>
</g>
</svg>
